<svg version="1.2" xmlns="http://www.w3.org/2000/svg" viewBox="0 0 169 98" width="169" height="98">
	<style>
		.s0 { fill: #143f94 } 
		.s1 { fill: #e31e1e } 
		.s2 { fill: #ffffff } 
		.s3 { fill: #94bf1e } 
	</style>
	<g id="layer1">
		<path id="path924" class="s0" d="m29.62 9.17c8.63 0 14.89 3.62 14.89 13.22v3.9c-29.47 5.23-42.09 12.34-43.99 25.7h10.4c2.68-7.86 13.79-13.31 33.59-16.79v16.79h10.02v-29.74c0-15.85-12.8-21.7-25.05-21.7-13.63 0-22.54 6.95-27.13 15.3l8.76 4.59c1.96-4.87 7.38-11.27 18.51-11.27z"/>
		<path id="path926" class="s0" d="m24.01 67.55h-1.63l1.82-9.82h2.09l1.8 9.82h-1.62l-0.31-2.17h-1.85zm0.55-3.64h1.35l-0.66-4.22h-0.03z"/>
		<path id="path928" class="s0" d="m33.26 61.25c-0.12-0.03-0.19-0.03-0.28-0.03-0.26 0-0.44 0.11-0.62 0.27 0.13 0.44 0.21 0.79 0.21 1.36 0 1.77-0.8 2.53-1.89 2.53-0.22 0-0.44-0.05-0.66-0.05-0.16 0.04-0.49 0.18-0.49 0.46 0 0.5 0.8 0.52 1.71 0.72 1.02 0.21 1.94 0.54 1.94 1.7 0 0.92-0.89 1.65-2.4 1.65-1.6 0-2.41-0.58-2.41-1.52 0-0.63 0.38-1.14 1.02-1.41-0.42-0.14-0.76-0.48-0.76-0.95 0-0.53 0.47-0.86 0.93-0.94-0.56-0.4-0.84-1.29-0.84-2.03 0-1.68 0.81-2.66 2.05-2.66 0.47 0 1.06 0.2 1.3 0.65 0.22-0.38 0.59-0.65 1.19-0.65zm-3.05 5.92c-0.57 0.25-0.95 0.58-0.95 0.97 0 0.59 0.48 0.99 1.55 0.99 1.08 0 1.48-0.44 1.48-1 0-0.66-1.23-0.76-2.08-0.96zm0.43-2.53c0.57 0 1.04-0.43 1.04-1.78 0-1.35-0.47-1.78-1.04-1.78-0.56 0-1.03 0.43-1.03 1.78 0 1.35 0.47 1.78 1.03 1.78z"/>
		<path id="path930" class="s0" d="m34.66 64.18v0.4c0 1.71 0.39 2.3 1.31 2.3 0.75 0 1.07-0.7 1.18-1.35l0.94 0.12c-0.16 1.06-0.96 2.04-2.25 2.04-1.48 0-2.16-1.12-2.16-3.67 0-2.56 0.68-3.68 2.16-3.68 1.5 0 2.16 1.34 2.16 3.38v0.46zm2.36-0.82c-0.01-1.52-0.3-2.19-1.18-2.19-0.7 0-1.17 0.51-1.18 2.19z"/>
		<path id="path932" class="s0" d="m38.92 60.49h0.93v0.77c0.46-0.48 1.14-0.92 1.61-0.92 0.97 0 1.54 0.56 1.54 1.86v5.35h-0.97v-5.22c0-0.81-0.24-1.16-0.78-1.16-0.48 0-0.91 0.32-1.34 0.87v5.51h-0.99z"/>
		<path id="path934" class="s0" d="m47.2 62.58c-0.1-1.06-0.53-1.41-1.13-1.41-0.82 0-1.18 0.51-1.18 2.85 0 2.33 0.36 2.86 1.18 2.86 0.63 0 0.99-0.33 1.15-1.55h0.95c-0.16 1.38-0.82 2.36-2.1 2.36-1.47 0-2.16-1.12-2.16-3.67 0-2.56 0.69-3.68 2.16-3.68 1.28 0 1.89 0.85 2.07 2.24z"/>
		<path id="path936" class="s0" d="m49.63 64.18v0.4c0 1.71 0.41 2.3 1.32 2.3 0.75 0 1.07-0.7 1.18-1.35l0.94 0.12c-0.16 1.06-0.95 2.04-2.25 2.04-1.48 0-2.16-1.12-2.16-3.67 0-2.56 0.68-3.68 2.16-3.68 1.49 0 2.16 1.34 2.16 3.38v0.46zm2.37-0.82c-0.03-1.52-0.3-2.19-1.18-2.19-0.71 0-1.17 0.51-1.19 2.19z"/>
		<path id="path938" class="s0" d="m57.89 67.55h-1.68v-9.82h2.37c1.88 0 2.85 0.81 2.85 2.9 0 1.59-0.61 2.22-1.18 2.48l1.43 4.44h-1.71l-1.2-4.06c-0.21 0.02-0.58 0.04-0.88 0.04zm0-5.42h0.6c0.92 0 1.26-0.33 1.26-1.5 0-1.17-0.34-1.51-1.26-1.51h-0.6z"/>
		<path id="path940" class="s0" d="m64.21 59.69h-0.69l1.34-1.87h1.06zm-1.11 4.49v0.4c0 1.71 0.39 2.3 1.32 2.3 0.74 0 1.06-0.7 1.18-1.35l0.92 0.12c-0.14 1.06-0.95 2.04-2.24 2.04-1.49 0-2.16-1.12-2.16-3.67 0-2.56 0.67-3.68 2.16-3.68 1.5 0 2.16 1.34 2.16 3.38v0.46zm2.37-0.82c-0.02-1.52-0.3-2.19-1.18-2.19-0.71 0-1.16 0.51-1.19 2.19z"/>
		<path id="path942" class="s0" d="m71.93 61.25q-0.15-0.04-0.27-0.03c-0.27 0-0.45 0.11-0.62 0.27 0.14 0.44 0.21 0.79 0.21 1.36 0 1.77-0.81 2.53-1.89 2.53-0.22 0-0.44-0.05-0.67-0.05-0.16 0.04-0.47 0.18-0.47 0.46 0 0.5 0.8 0.52 1.7 0.72 1.02 0.21 1.94 0.54 1.94 1.7 0 0.92-0.9 1.65-2.39 1.65-1.61 0-2.43-0.58-2.43-1.52 0-0.63 0.4-1.14 1.03-1.41-0.42-0.14-0.76-0.48-0.76-0.95 0-0.53 0.47-0.86 0.93-0.94-0.55-0.4-0.84-1.29-0.84-2.03 0-1.68 0.82-2.66 2.04-2.66 0.47 0 1.07 0.2 1.3 0.65 0.22-0.38 0.6-0.65 1.19-0.65zm-3.04 5.92c-0.56 0.25-0.95 0.58-0.95 0.97 0 0.59 0.5 0.99 1.56 0.99 1.08 0 1.46-0.44 1.46-1 0-0.66-1.22-0.76-2.07-0.96zm0.44-2.53c0.57 0 1.03-0.43 1.03-1.78 0-1.35-0.46-1.78-1.03-1.78-0.58 0-1.03 0.43-1.03 1.78 0 1.35 0.45 1.78 1.03 1.78z"/>
		<path id="path944" class="s0" d="m72.9 60.49h0.98v7.06h-0.98zm0-2.75h0.98v1.14h-0.98z"/>
		<path id="path946" class="s0" d="m76.99 60.34c1.49 0 2.16 1.12 2.16 3.68 0 2.55-0.67 3.67-2.16 3.67-1.48 0-2.16-1.12-2.16-3.67 0-2.56 0.68-3.68 2.16-3.68zm0 6.54c0.84 0 1.19-0.53 1.19-2.86 0-2.34-0.35-2.85-1.19-2.85-0.83 0-1.18 0.51-1.18 2.85 0 2.33 0.35 2.86 1.18 2.86z"/>
		<path id="path948" class="s0" d="m80.08 60.49h0.92v0.77c0.46-0.48 1.14-0.92 1.6-0.92 0.99 0 1.56 0.56 1.56 1.86v5.35h-0.99v-5.22c0-0.81-0.23-1.16-0.77-1.16-0.47 0-0.91 0.32-1.34 0.87v5.51h-0.98z"/>
		<path id="path950" class="s0" d="m85.43 62.41c0.19-1.11 0.85-2.07 2.1-2.07 1.31 0 2.02 0.77 2.02 2.02v3.93c0 0.64 0.06 1.1 0.18 1.26h-1.02l-0.13-0.59c-0.38 0.38-1.05 0.73-1.5 0.73-1.1 0-1.83-0.71-1.83-1.82 0-1.74 1.92-2.63 3.33-2.94v-0.51c0-0.77-0.4-1.25-1.03-1.25-0.74 0-1.11 0.74-1.22 1.38zm3.15 1.34c-0.9 0.27-2.36 0.93-2.36 2.04 0 0.66 0.3 1.09 1.01 1.09 0.53 0 0.99-0.37 1.35-0.74z"/>
		<path id="path952" class="s0" d="m91.11 57.74h0.97v9.81h-0.97z"/>
		<path id="path954" class="s0" d="m94.01 64.18v0.4c0 1.71 0.39 2.3 1.32 2.3 0.75 0 1.06-0.7 1.18-1.35l0.93 0.12c-0.15 1.06-0.96 2.04-2.24 2.04-1.49 0-2.18-1.12-2.18-3.67 0-2.56 0.69-3.68 2.18-3.68 1.49 0 2.15 1.34 2.15 3.38v0.46zm2.36-0.82c-0.02-1.52-0.29-2.19-1.18-2.19-0.71 0-1.17 0.51-1.18 2.19z"/>
		<path id="path956" class="s0" d="m103.95 66.88h-0.04c-0.33 0.49-0.82 0.81-1.45 0.81-1.11 0-2.03-0.95-2.03-3.67 0-2.72 0.92-3.68 2.03-3.68 0.54 0 0.97 0.32 1.31 0.66v-3.27h0.97v7.92c0 0.92 0.07 1.49 0.18 1.9h-0.93zm-0.18-5.09c-0.28-0.28-0.63-0.62-1.06-0.62-0.84 0-1.31 0.68-1.31 2.85 0 2.18 0.52 2.86 1.33 2.86 0.31 0 0.74-0.27 1.04-0.68z"/>
		<path id="path958" class="s0" d="m106.71 64.18v0.4c0 1.71 0.4 2.3 1.32 2.3 0.75 0 1.06-0.7 1.19-1.35l0.92 0.12c-0.15 1.06-0.95 2.04-2.25 2.04-1.48 0-2.14-1.12-2.14-3.67 0-2.56 0.66-3.68 2.14-3.68 1.5 0 2.17 1.34 2.17 3.38v0.46zm2.36-0.82c-0.03-1.52-0.3-2.19-1.19-2.19-0.69 0-1.15 0.51-1.17 2.19z"/>
		<path id="path960" class="s0" d="m116.36 60.15c-0.06-0.84-0.51-1.08-0.89-1.08-0.54 0-0.84 0.35-0.84 0.96 0 1.68 3.43 2.48 3.43 5.14 0 1.62-1.09 2.52-2.67 2.52-1.57 0-2.46-1.25-2.53-2.72l1.6-0.23c0.07 1 0.47 1.48 1.01 1.48 0.59 0 0.98-0.31 0.98-0.89 0-1.96-3.42-2.46-3.42-5.29 0-1.55 0.94-2.44 2.6-2.44 1.37 0 2.2 0.99 2.34 2.38z"/>
		<path id="path962" class="s0" d="m118.82 62.41c0.18-1.11 0.84-2.07 2.08-2.07 1.31 0 2.03 0.77 2.03 2.02v3.93c0 0.64 0.07 1.1 0.19 1.26h-1.04l-0.11-0.59c-0.38 0.38-1.07 0.73-1.52 0.73-1.09 0-1.83-0.71-1.83-1.82 0-1.74 1.92-2.63 3.34-2.94v-0.51c0-0.77-0.4-1.25-1.03-1.25-0.75 0-1.11 0.74-1.23 1.38zm3.15 1.34c-0.91 0.27-2.37 0.93-2.37 2.04 0 0.66 0.31 1.09 1.02 1.09 0.52 0 0.99-0.37 1.35-0.74z"/>
		<path id="path964" class="s0" d="m124.43 60.49h0.92v0.77c0.47-0.48 1.16-0.92 1.62-0.92 0.97 0 1.55 0.56 1.55 1.86v5.35h-0.98v-5.22c0-0.81-0.24-1.16-0.78-1.16-0.47 0-0.9 0.32-1.34 0.87v5.51h-0.99z"/>
		<path id="path966" class="s0" d="m129.06 60.49h0.95v-2.37h0.98v2.37h1.31v0.81h-1.31v4.95c0 0.41 0.21 0.71 0.7 0.71 0.2 0 0.44-0.08 0.61-0.14v0.73c-0.28 0.09-0.52 0.14-0.94 0.14-0.92 0-1.35-0.43-1.35-1.53v-4.86h-0.95z"/>
		<path id="path968" class="s0" d="m134.74 59.69h-0.68l1.33-1.87h1.07zm-1.1 4.49v0.4c0 1.71 0.39 2.3 1.32 2.3 0.74 0 1.06-0.7 1.18-1.35l0.93 0.12c-0.16 1.06-0.96 2.04-2.25 2.04-1.48 0-2.17-1.12-2.17-3.67 0-2.56 0.69-3.68 2.17-3.68 1.5 0 2.16 1.34 2.16 3.38v0.46zm2.37-0.82c-0.03-1.52-0.31-2.19-1.19-2.19-0.71 0-1.17 0.51-1.18 2.19z"/>
		<path id="path970" fill-rule="evenodd" class="s1" d="m14.8 67.42c-2.73 0-4.94-2.21-4.94-4.94 0-2.73 2.21-4.94 4.94-4.94 2.73 0 4.94 2.21 4.94 4.94 0 2.73-2.21 4.94-4.94 4.94z"/>
		<path id="path972" fill-rule="evenodd" class="s2" d="m9.98 67.42c-2.74 0-4.94-2.21-4.94-4.94 0-2.73 2.2-4.94 4.94-4.94 2.73 0 4.94 2.21 4.94 4.94 0 2.73-2.21 4.94-4.94 4.94z"/>
		<path id="path974" fill-rule="evenodd" class="s0" d="m4.95 67.42c-2.74 0-4.95-2.21-4.95-4.94 0-2.73 2.21-4.94 4.95-4.94 2.73 0 4.94 2.21 4.94 4.94 0 2.73-2.21 4.94-4.94 4.94z"/>
		<path id="path976" class="s3" d="m108.16 73.35c8.84 12.63 16.78 15.88 29.05 15.88 11.9 0 20.93-7.75 20.93-17.87 0-27.23-55.21-11.9-55.21-45.27 0-17.68 13.89-25.62 29.77-25.62 15.69 0 25.61 6.13 32.29 16.96l-8.29 5.77c-6.32-8.66-13.17-14.07-24.36-14.07-10.46 0-18.58 5.05-18.58 16.41 0 22.92 55.2 9.39 55.2 45.82 0 16.79-15.52 26.53-32.47 26.53-14.44 0-27.42-5.77-36.26-18.94z"/>
		<path id="path978" class="s0" d="m74.39 51.99v-17.77c4.74-14.89 11.28-23.1 23.8-23.38v-10.02c-11.97 0-17.95 5.58-23.53 15.44h-0.27v-14.33h-10.01v50.06z"/>
	</g>
</svg>