<svg version="1.2" xmlns="http://www.w3.org/2000/svg" viewBox="0 0 1006 378" width="500" height="188">
	<style>
		.s0 { fill: #424443 } 
		.s1 { fill: #fefefe } 
		.s2 { fill: #5aba3b } 
		.s3 { fill: #424343 } 
		.s4 { fill: #434d43 } 
	</style>
	<path class="s0" d="m164.5 5l2 0.5 8.5 6 6.5 4 10 6 8 4.5 15 7.5 13.5 5.5 6.5 2.5 12.5 4 15.5 4 10 2 5 0.5 1 0.5 6.5 0.5 1 0.5 12 0.5 1 0.5h15l0.5-0.5 10.5-0.5 2-0.5v20h674l1 0.5v268.5l-785 0.5-4.5 3.5-3.5 3-6 4.5-10.5 7-7.5 4.5-10.5 6-8.5 3.5-2 0.5-19-10-10.5-6.5-8.5-6-10-8-8-7-16.5-16.5-3.5-4.5-4-4.5-5-6.5-7-9.5-7.5-11.5-5-8.5-5.5-10-5-9.5-3-6.5-4.5-10-2.5-5.5-9-24-4-13-3-10-5-19-3-13-1.5-8-1.5-6.5-0.5-4.5-1.5-6.5-0.5-5.5-0.5-1-1-6.5-0.5-6-0.5-1.5-0.5-6-0.5-1.5-0.5-8-0.5-1-0.5-10-0.5-1-0.5-13-0.5-2v-14l2.5 0.5 10 0.5 1.5 0.5h14l1-0.5 12-0.5 1-0.5 6.5-0.5 6.5-1 1-0.5 4.5-0.5 0.5-0.5 8.5-1.5 0.5-0.5 3.5-0.5 4.5-1.5 8.5-2.5 12-4 5.5-2.5 6.5-2.5 9.5-4.5 7-3.5 10-5.5 13-8 10-7z"/>
	<path class="s1" d="m322.5 108h645l0.5 157-0.5 0.5h-691.5l1-3 4.5-8.5 7-15.5 7.5-19 6.5-19 7-24.5 4.5-19 4-20 4-25.5z"/>
	<path class="s2" d="m164.5 5l2 0.5 8.5 6 6.5 4 10 6 8 4.5 15 7.5 13.5 5.5 6.5 2.5 12.5 4 15.5 4 10 2 5 0.5 1 0.5 6.5 0.5 1 0.5 12 0.5 1 0.5h15l0.5-0.5 10.5-0.5 2-0.5v20h674l1 0.5v3.5h-0.5v-3h-675.5l-0.5 9-2 20v5h-1l-0.5 7-4 24.5-4.5 22-5.5 22-6 20-6 17.5-8.5 21-8.5 18-7.5 14-7.5 12.5-8.5 12.5-6 8-5.5 7-4.5 5-3.5 4-4.5 5-8 8-4 3.5-1 1 6.5 0.5h776l1-1v2l-785 0.5-4.5 3.5-3.5 3-6 4.5-10.5 7-7.5 4.5-10.5 6-8.5 3.5-2 0.5-19-10-10.5-6.5-8.5-6-10-8-8-7-16.5-16.5-3.5-4.5-4-4.5-5-6.5-7-9.5-7.5-11.5-5-8.5-5.5-10-5-9.5-3-6.5-4.5-10-2.5-5.5-9-24-4-13-3-10-5-19-3-13-1.5-8-1.5-6.5-0.5-4.5-1.5-6.5-0.5-5.5-0.5-1-1-6.5-0.5-6-0.5-1.5-0.5-6-0.5-1.5-0.5-8-0.5-1-0.5-10-0.5-1-0.5-13-0.5-2v-14l2.5 0.5 10 0.5 1.5 0.5h14l1-0.5 12-0.5 1-0.5 6.5-0.5 6.5-1 1-0.5 4.5-0.5 0.5-0.5 8.5-1.5 0.5-0.5 3.5-0.5 4.5-1.5 8.5-2.5 12-4 5.5-2.5 6.5-2.5 9.5-4.5 7-3.5 10-5.5 13-8 10-7z"/>
	<path class="s1" d="m249.5 117l3.5 3 3 2.5v1l2 1 11 11v1h1v1h1l2 2.5 1 0.5v1.5l-4 3.5-119.5 119.5-0.5 1h-2l-3.5-4-74.5-74.5 0.5-2 23-23 3.5 3 51.5 51.5 2-1z"/>
	<path class="s0" d="m358.5 133.5h31l0.5 14.5v28l39.5-0.5 0.5-42h31.5v113.5h-31.5v-43h-40l-0.5 43h-31l-0.5-11.5v-100z"/>
	<path class="s0" d="m836 133.5h56.5l9 1.5 7.5 2.5 7.5 4 6 5.5 3.5 4 3.5 7 2 7 0.5 3.5v10l-1.5 7.5-2.5 6.5-3.5 5.5-4.5 5-6.5 4.5-7.5 3.5-6.5 2-9 1.5-22.5 0.5-0.5 32h-31l-0.5-0.5z"/>
	<path class="s3" d="m520.5 132.5h30.5l2.5 5 7.5 18 10 23.5 9 21.5 10 23.5 9 21.5v1.5h-33.5l-5-11.5-3-7.5v-1h-44l-1.5 4.5-6 15-0.5 0.5h-33l1.5-4.5 19-45 8.5-20 8-19 9.5-22.5z"/>
	<path class="s3" d="m769 131h10.5l10 1.5 10.5 3.5 8 4.5 5.5 4.5 6 6 2.5 3.5-2.5 2.5-7.5 6-13 10-2-1-6-6-6-3.5-4.5-1.5-3-0.5h-7.5l-6 1.5-5.5 3-4.5 4-3.5 5.5-2.5 6.5-1 5v8l2 8.5 3 6 3 3.5v1l2 1 4 3 7 2.5 3.5 0.5h4.5l7.5-1.5 6-3 5.5-4.5 4-4.5 4.5 3 8.5 6 9 6.5 1.5 1-0.5 2-4.5 5.5-6 6-6.5 4.5-8 4-7.5 2.5-8 1.5h-16.5l-9.5-2-8-3-7.5-4-6.5-5-6.5-6.5-5-7-4.5-9.5-2-6.5-1.5-9v-12l1.5-9 3-9 4-8 4.5-6 4.5-5 5-4.5 8-5 8-3.5 6.5-2z"/>
	<path class="s3" d="m654 131h10.5l10 1.5 8 2.5 8 4 7 5 7.5 7.5 2 3.5-6 5-8 6-7 5.5-2 1.5-2-1-6-6-6-3.5-4.5-1.5-3-0.5h-7.5l-6 1.5-5.5 3-4.5 4-3.5 5.5-2.5 6.5-1 5v7.5l1.5 7.5 2 5 3.5 5 1 2 2 1 2.5 2 5 2.5 7 1.5h4.5l7.5-1.5 6-3 5.5-4.5 4-4.5 5.5 3.5 6 4.5 8.5 6 4 3-3 4-4.5 5-4 4-6.5 4.5-8 4-7.5 2.5-8 1.5h-16.5l-9.5-2-8-3-7.5-4-6.5-5-6.5-6.5-4.5-6.5-4-7.5-3-9-1.5-9v-11.5l1.5-9.5 3-9 5-9.5 5.5-7 4.5-4.5 7.5-5.5 7.5-4 10.5-3.5z"/>
	<path class="s1" d="m790 281.5h23.5l8 2 5.5 3.5 3.5 4 2 4 1.5 6.5v4.5l-1 5-3.5 7-4.5 4-6.5 3-6 1h-22.5l-0.5-17.5v-11.5z"/>
	<path class="s1" d="m539.5 281.5h25l5 1 5 2.5 3.5 4 1.5 3.5 0.5 6.5-1 5-2 4-3.5 3.5 3 6 4.5 7v1.5h-16l-5-10v-1.5h-6v11.5h-14.5z"/>
	<path class="s1" d="m740 281.5h37l0.5 0.5v10l-0.5 0.5-22 0.5-0.5 5h20.5l0.5 1v10l-0.5 0.5h-20.5v5.5h23.5v11h-38l-0.5-1v-43z"/>
	<path class="s1" d="m489.5 281.5h37l0.5 0.5v10.5l-22.5 0.5-0.5 5h20.5l0.5 0.5v10.5l-0.5 0.5h-20.5l0.5 5 23 0.5v11h-38l-0.5-3.5v-40.5z"/>
	<path class="s1" d="m458 281h5.5l5 1 5 2 5 3.5 1.5 2-6 7-2 2.5-2-1-3.5-3-2.5-1h-5.5l-2.5 1.5h-1l-1 2-1.5 4.5 0.5 5.5 2.5 4 4.5 2 4.5-0.5 4-2 2.5-2 2 1 7 7.5-2.5 3-5.5 3.5-5 2-2.5 0.5h-8.5l-6.5-2-4.5-3-4-4-3-6-1-4.5v-6.5l1.5-5.5 2.5-4.5 3.5-4 5.5-3.5z"/>
	<path class="s1" d="m666 281.5h35.5l0.5 0.5v10l-0.5 0.5-20 0.5-0.5 7.5h19.5v11h-19.5v14l-0.5 0.5h-14.5z"/>
	<path class="s1" d="m589 281.5h39.5l0.5 0.5v11l-12.5 0.5-0.5 32.5h-14.5l-0.5-32.5-12-0.5z"/>
	<path class="s1" d="m868 160h18.5l4.5 1 4.5 2.5 3.5 4 1.5 5v4.5l-1.5 5-4 4.5-4 2-3.5 1-12 0.5h-7.5l-0.5-0.5v-29z"/>
	<path class="s1" d="m326.5 62.5h0.5v10.5h674l1 0.5v3.5h-0.5v-3h-675.5v-9z"/>
	<path class="s1" d="m639 281.5h14l0.5 0.5v43.5l-0.5 0.5h-14l-0.5-0.5v-43.5z"/>
	<path class="s1" d="m712.5 281.5h14.5v44.5h-14.5z"/>
	<path class="s1" d="m535 171h1l5.5 13.5 6.5 16.5v1h-25l5.5-14.5z"/>
	<path class="s0" d="m804.5 293h7l3.5 1.5 2.5 3 1.5 5-0.5 5.5-2 4-2.5 2-1.5 0.5h-8z"/>
	<path class="s4" d="m554.5 292.5h7l2.5 1 1.5 1.5 0.5 4-1 2.5-1.5 1.5-2 0.5h-7l-0.5-0.5v-10z"/>
</svg>