<svg version="1.2" xmlns="http://www.w3.org/2000/svg" viewBox="0 0 1280 178" width="1280" height="178">
	<style>
		.s0 { fill: #ffffff } 
	</style>
	<g id="&lt;Group&gt;">
		<path id="&lt;Compound Path&gt;" fill-rule="evenodd" class="s0" d="m636.81 121.18c36.52 0 63.57-25.39 63.57-60.08 0-34.69-27.05-60.1-63.57-60.1-36.68 0-63.57 25.57-63.57 60.1 0 34.51 26.89 60.08 63.57 60.08zm-58.42-59.65c0-0.67 0.54-1.2 1.21-1.2h14.27c0.37-23.01 18.91-41.62 41.89-42.1v-14.03c0-0.67 0.55-1.21 1.21-1.21 0.67 0 1.2 0.54 1.2 1.21v14.04c22.71 0.76 40.93 19.18 41.37 41.97h14.95c0.66 0 1.19 0.53 1.19 1.2 0 0.66-0.53 1.19-1.19 1.19h-14.97c-0.79 22.49-18.91 40.56-41.41 41.29v14.51c0 0.65-0.55 1.2-1.21 1.2-0.67 0-1.2-0.55-1.2-1.2v-14.5c-22.65-0.52-40.95-18.61-41.81-41.16h-14.29c-0.67 0-1.21-0.55-1.21-1.21zm25.96-5.01q-0.4 2.54-0.4 5.17c0 4.45 0.88 8.76 2.6 12.83q1.24 2.97 3.05 5.61 1.77 2.65 4.03 4.89c1.48 1.5 3.13 2.85 4.87 4.03 1.77 1.19 3.66 2.22 5.61 3.05 4.07 1.71 8.39 2.58 12.85 2.58 4.46 0 8.78-0.87 12.85-2.58 1.96-0.83 3.84-1.86 5.61-3.05q2.62-1.78 4.89-4.03 2.23-2.24 4.03-4.89 1.79-2.64 3.03-5.61c1.73-4.07 2.6-8.38 2.6-12.83q0-2.64-0.4-5.21v-0.01l3.01-2.53 5.33-4.49-0.74-0.43c-1.97-1.11-4.09-1.68-6.42-2.1q-1.15-0.19-2.37-0.39l-0.12-0.01-1.74 0.45q-0.97-1.94-2.18-3.74-1.8-2.64-4.03-4.89c-1.5-1.49-3.15-2.85-4.89-4.03q-2.66-1.79-5.61-3.04c-4.07-1.74-8.39-2.59-12.85-2.59-4.46 0-8.78 0.85-12.85 2.59q-2.95 1.25-5.61 3.04c-1.74 1.18-3.39 2.54-4.87 4.03q-2.26 2.25-4.03 4.89-1.23 1.8-2.2 3.74l-1.64-0.42-0.11-0.03-0.12 0.01q-1.32 0.18-2.65 0.4c-2.16 0.42-4.31 1.01-6.23 2.09l-0.76 0.43 5.18 4.34zm34.42 35.71q-0.6 0.59-1.17 1.15l-0.64 0.63-0.63-0.63q-0.58-0.57-1.15-1.15c-16.05-0.92-28.82-14.28-28.82-30.54q0-1.71 0.19-3.35l1.36 1.15q-0.08 1.16-0.09 2.34c0 14.99 11.36 27.35 25.94 28.92-0.39-0.43-2.98-4.09-2.98-4.09h12.61c0 0-2.53 3.26-3.19 4.07 14.51-1.63 25.8-13.94 25.8-28.9q0-1.14-0.1-2.26v-0.01h0.02l1.45-1.25q0.19 1.67 0.19 3.38c0 16.26-12.76 29.61-28.79 30.54zm-9.85-31.62l0.16 0.21 0.48 0.66 0.27 0.38 0.52 0.74v0.01l-6.33 1.43-3.86 6.28-3.95 1.47q-0.03 0.02-0.06 0.02-0.06 0-0.11-0.04-0.02 0-0.03-0.02-0.04-0.03-0.08-0.08c-0.24-0.27-0.47-0.86-0.53-1.12q-0.02-0.05-0.02-0.07-0.02-0.04-0.01-0.05h0.01l3.56-1.56c1.27-2.02 2.23-4.27 3.58-6.21h0.01zm-0.56-11.03l-4.45-1.77h-0.01c-0.13-0.1-0.72-2.83-0.76-3.01-0.12-0.61-0.24-1.16-0.4-1.46-0.15-0.28-1.12-1.05-1.42-1.33-0.28-0.23-0.62-0.5-0.98-0.7l0.98-1.26 3.09 2.65h0.01l1.01 3.76 4.57 1.53zm17.26 10.98l6.04 2.1 3.53 6.26 3.49 1.5h0.02l-0.59 1.5-4.14-1.57-3.81-6.3-6.21-1.62zm-1.21-12.52l4.23-1.56 0.9-3.78 3.09-2.65h0.01l0.97 1.09-2.44 2.29-0.99 4.28h-0.01l-4.1 1.78zm4.19 19.62h0.01l3.08 4.51 0.11 6.91 2.85 4.17-1.32 0.85-3.83-5.25-0.1-6.49-5.68-6.65zm-19.63 12.88h16.12l-1.57 3.8h-0.01l-2.37-0.02-10.68-0.05v-0.01zm16.93-7.14v3.93h-17.75v-3.93zm-2.13-14.94l-4.15 5.17h-2.71v-17.15h2.59q0.07 0.01 0.34 0.26 0.05 0.05 0.13 0.13 0.15 0.13 0.32 0.32c0.82 0.83 2.05 2.19 2.83 2.96l0.12 0.12c0.2 0.22 0.57 0.63 0.57 0.67 0.02 0.08-0.12 5.2-0.04 7.52zm-3.33 7.58l0.32 0.12h0.01l3.4 4.03h-14.17l3.65-4.12zm-9.98-0.32l-5.92 6.77-0.11 6.44-3.64 5.18-1.36-0.96h-0.02l2.73-4.07 0.1-6.82 3.3-4.68 4.92-1.88zm34.22-17.01l2.36-0.63h0.01l1.28-0.33q1.49 0.22 2.87 0.48c1.65 0.33 3.18 0.75 4.58 1.42l-3.45 2.92-3 2.54h-0.01v0.01l-2.12 1.78-0.01 0.02-1.43 1.19-4.64 3.91-14.15-4.81-0.01-3.8v-0.01l16.13-4.28zm-0.55-1.11l-1.6 0.45c-3.32-6.16-8.81-10.99-15.42-13.47l1.29-0.31-0.3-1.1c6.93 2.72 12.62 7.89 16.03 14.43zm-27.17-16.51q3.86 0 7.44 0.91l-2.33 0.52-0.19 0.23q-0.16 0.18-0.32 0.36h-0.01q-2.27-0.36-4.64-0.36-2.34 0-4.57 0.36c-0.35-0.38-0.45-0.44-0.52-0.49-0.12-0.08-0.28-0.16-1.02-0.37-0.32-0.09-0.71-0.2-1.1-0.29q3.5-0.87 7.26-0.87zm-10.04 1.68l0.11-0.52 0.55 0.11c0 0 2.07 0.44 2.22 0.48q0.45 0.12 0.85 0.24c0.19 0.04 0.82 0.25 0.82 0.25 0.04 0.02 0.13 0.08 0.16 0.11q0.02 0.02 0.04 0.04 0.07 0.06 0.18 0.18c0.02 0.02 1.13 1.23 1.21 1.32 0.79 0.91 1.92 2.3 2.48 3.79l3.11-0.05c0.06-0.47 0.42-0.99 0.73-1.45 0.62-0.94 1.34-1.81 2.08-2.66q0.28-0.32 0.55-0.63 0.27-0.32 0.54-0.65l0.11-0.02 3.68-0.77 0.59-0.12h0.01l0.18-0.05h0.01l0.14 0.5 0.21 0.73-1.89 0.46h-0.02l-1.93 0.45h-0.01v0.02q-0.1 0.1-0.19 0.2l-0.36 0.4q-0.03 0.04-0.07 0.08c-0.11 0.12-0.94 1.07-1.04 1.22-0.09 0.09-1.14 1.52-1.16 1.55-0.01 0-0.71 1.26-0.71 1.26 0.02 0 0.53 0.05 0.67 0.08 0.61 0.08 1.06 0.2 1.62 0.49q0.05 0.02 0.07 0.04c0.05 0.03 0.21 0.14 0.23 0.15q0.04 0.03 0.08 0.05 0.08 0.07 0.16 0.14c0.05 0.04 0.2 0.19 0.2 0.19 0.05 0.05 0.5 0.6 0.55 0.69q0.22 0.37 0.32 0.82 0.02 0.04 0.03 0.13 0.11 0.44 0.09 0.93-0.02 0.34-0.12 0.66-0.04 0.15-0.09 0.29c-0.02 0.02-0.14 0.28-0.15 0.29 0 0-0.32 0.52-0.36 0.56-0.06 0.08-0.6 0.55-0.69 0.59q-0.2 0.14-0.42 0.23c0 0-0.15 0.04-0.23-0.01l-1.83-1.33c-0.29 0.03-6.16-0.04-6.16-0.04l-0.95 0.78c-0.11 0.09-0.46 0.36-0.47 0.37-0.01 0.02-0.15 0.11-0.15 0.11-0.84 0.49-2.45-1.34-2.27-3.19l0.01-0.12c0.11-1.07 0.79-2.02 1.79-2.42 0.51-0.2 0.87-0.27 1.05-0.31 0.13-0.04 0.25-0.07 0.25-0.07q0.27-0.05 0.54-0.1l0.28 0.02c0 0-3.26-4.29-3.58-4.67l-2.23-0.56h-0.02l-1.6-0.41zm-1.03 0.37h0.01l-0.27 1.13 1.13 0.28c-3.31 1.24-6.33 3.06-8.94 5.34-2.63 2.27-4.82 5-6.5 8.08l-1.52-0.39c3.42-6.55 9.14-11.74 16.09-14.44zm-23.48 15.11q1.59-0.31 3.16-0.51l1.31 0.34 2.37 0.6h0.01l1.5 0.39 17.02 4.34v3.8l-14.97 4.8-4.74-3.94-0.01-0.02-1.33-1.11-0.01-0.01-2.13-1.78-3.25-2.73-3.31-2.77c1.38-0.65 2.87-1.08 4.38-1.4zm-81.9 68.91c19.44 0 35.54-7.01 46.06-19.92l-16.57-15.3c-7.5 8.77-16.9 13.23-28.06 13.23-20.87 0-35.7-14.66-35.7-35.7 0-21.04 14.83-35.7 35.7-35.7 11.16 0 20.56 4.46 28.06 13.06l16.57-15.3c-10.52-12.75-26.62-19.76-45.9-19.76-34.75 0-60.57 24.07-60.57 57.7 0 33.63 25.82 57.69 60.41 57.69zm224.26-69.65l55.62 67.74h21.2v-111.57h-25.5v67.74l-55.46-67.74h-21.36v111.57h25.5zm126.4 67.74h25.82v-90.53h35.7v-21.04h-97.22v21.04h35.7zm101.21-31.08h22.47 1.28l21.51 31.08h27.74l-25.03-35.86c14.51-6.22 22.95-18.49 22.95-35.23 0-25.02-18.64-40.48-48.45-40.48h-48.29v111.57h25.82zm0-59.45h21.04c15.78 0 23.75 7.17 23.75 19.44 0 12.12-7.97 19.45-23.75 19.45h-21.04zm145.36 93.78c35.06 0 61.04-24.39 61.04-57.7 0-33.31-25.98-57.69-61.04-57.69-35.22 0-61.04 24.54-61.04 57.69 0 33.15 25.82 57.7 61.04 57.7zm0-93.4c19.92 0 34.9 14.51 34.9 35.7 0 21.2-14.98 35.7-34.9 35.7-19.92 0-34.9-14.5-34.9-35.7 0-21.19 14.98-35.7 34.9-35.7zm106.32 69.11v-90.53h-25.82v111.57h81.76v-21.04zm-1198.56-44.42l55.63 67.74h21.19v-111.57h-25.5v67.74l-55.46-67.74h-21.36v111.57h25.5zm152.86 69.65c31.71 0 50.52-18.17 50.52-51.01v-62.47h-25.5v61.52c0 21.2-9.09 29.96-24.86 29.96-15.62 0-24.87-8.76-24.87-29.96v-61.52h-25.82v62.47c0 32.84 18.81 51.01 50.53 51.01zm101.85-113.48v111.56h-25.82v-111.56zm63.27 92.76c-13.38 0-27.41-4.78-36.81-11.64l-8.77 19.45c9.88 7.65 27.73 12.91 45.42 12.91 31.88 0 47.34-15.94 47.34-34.59 0-40.96-64.87-26.78-64.87-47.34 0-7.01 5.9-12.75 21.2-12.75 9.88 0 20.56 2.87 30.92 8.77l7.97-19.6c-10.36-6.54-24.7-9.89-38.73-9.89-31.72 0-47.02 15.78-47.02 34.75 0 41.44 64.87 27.09 64.87 47.97 0 6.86-6.22 11.96-21.52 11.96zm90.7-92.76v111.56h-25.82v-111.56zm791 156.72h-1209.6c-3.7 0-6.7 3-6.7 6.69 0 3.7 3 6.7 6.7 6.7h1209.6c3.69 0 6.69-3 6.69-6.7 0-3.69-3-6.69-6.69-6.69z"/>
	</g>
</svg>