<svg version="1.2" xmlns="http://www.w3.org/2000/svg" viewBox="0 0 185 112" width="185" height="112">
	<defs>
		<clipPath clipPathUnits="userSpaceOnUse" id="cp1">
			<path d="m58 2v20h-57v-20z"/>
		</clipPath>
		<clipPath clipPathUnits="userSpaceOnUse" id="cp2">
			<path d="m55 97v37h-54v-37z"/>
		</clipPath>
	</defs>
	<style>
		.s0 { fill: #ffffff } 
		.s1 { fill: #000091 } 
		.s2 { fill: #e1000f } 
		.s3 { fill: #808080 } 
		.s4 { fill: #1e1e1e } 
		.s5 { fill: #000000 } 
	</style>
	<path fill-rule="evenodd" class="s0" d="m58 2v20h-55v-20z"/>
	<path fill-rule="evenodd" class="s1" d="m24.01 20.64q-0.11 0.06-0.2 0.1-0.45 0.22-0.84 0.4c-0.6 0.27-1.1 0.5-1.6 0.86h-18.37v-20h25.94q-0.52 0.16-1.01 0.38c-0.36 0.17-0.86 0.39-1.16 0.76h-0.01c-0.3 0.38-0.6 0.76-0.71 1.21-0.49 0.3-0.8 0.75-1.06 1.21q-0.12 0.22-0.25 0.43c-0.29 0.48-0.56 0.94-0.51 1.5q0.08 0.54 0.2 1.08 0.08 0.35 0.14 0.73 0.05 0.33 0.16 0.64 0.04 0.15 0.04 0.32-0.01 0.2 0.07 0.36 0.04 0.07 0.05 0.14c0.02 0.08 0.04 0.15 0.14 0.2v0.15q0.01 0.02 0.02 0.03 0.02 0.05 0.09 0.05v0.15q0.14 0.17 0.29 0.33c0.22 0.26 0.45 0.51 0.58 0.8 0.08 0.23-0.38 0.12-0.57 0.04-0.26-0.13-0.45-0.32-0.65-0.51q-0.12-0.12-0.25-0.24-0.03 0.03-0.04 0.07 0.08 0.13 0.23 0.27c0.19 0.2 0.39 0.4 0.18 0.52q-0.1 0.04-0.21 0c-0.09-0.02-0.19-0.04-0.28 0.04q-0.03 0.08-0.01 0.15 0.01 0.04 0.01 0.08c-0.13-0.09-0.27-0.1-0.41-0.11q-0.13 0-0.27-0.04-0.09-0.04-0.16-0.16c-0.05-0.09-0.11-0.18-0.22-0.18q-0.7-0.19-1.43-0.27-0.16-0.01-0.31-0.03c-0.57-0.07-1.12-0.14-1.69-0.04-0.61 0.04-1.06 0.49-1.44 0.94v0.12c0.16 0.02 0.27-0.06 0.38-0.14q0.1-0.08 0.22-0.13 0.29-0.06 0.55-0.15 0.27-0.09 0.55-0.15 0.17-0.03 0.33-0.07c0.44-0.1 0.87-0.19 1.3-0.16q0.05 0 0.11-0.01 0.14-0.02 0.26 0.01c-0.58-0.03-1.1 0.13-1.64 0.3q-0.14 0.04-0.28 0.08-0.24 0.07-0.47 0.11c-0.29 0.06-0.58 0.12-0.86 0.27q1.5-0.05 2.91 0.41 0.5 0.17 0.95 0.46 0.09 0.07 0.15 0.13 0.1 0.1 0.23 0.17 0.31 0.16 0.64 0.04h0.19l0.05-0.02c0.55-0.14 1.13-0.3 1.5-0.7q0.01 0.05 0.07 0.04-0.05 0.15-0.09 0.31c-0.05 0.21-0.1 0.42-0.25 0.59q0 0.02 0 0.04c-0.01 0.03-0.02 0.09 0.04 0.12h0.08q-0.07-0.01-0.08 0.03 0.01 0.05 0.06 0.04 0.06-0.01 0.09 0.04c-0.19 0.04-0.38 0.08-0.49 0.23 0 0.03 0.08 0.03 0.11 0.03q-0.05 0.05-0.12 0.06-0.07 0.01-0.1 0.06 0.03 0.03 0.07 0.04-0.06-0.01-0.07 0.03v0.12q-0.11 0-0.16 0.06-0.03 0.03-0.07 0.05c0.1 0.07 0.18 0.05 0.27 0.03q0.07-0.03 0.15-0.03-0.27 0.1-0.51 0.22-0.32 0.16-0.67 0.27-0.04 0.01-0.03 0.06 0.01 0.05-0.04 0.05c0.07 0.05 0.12 0.03 0.18 0q0.06-0.03 0.12-0.03-0.32 0.18-0.65 0.35-0.47 0.26-0.97 0.55-0.07 0.07-0.08 0.15h-0.15q-0.05 0.04-0.06 0.11-0.01 0.06-0.05 0.12c0.09 0.06 0.19 0.02 0.28-0.01 0.1-0.03 0.19-0.07 0.25 0.01 0.03 0-0.08 0.04-0.16 0.04q-0.02 0-0.03 0.04-0.02 0.03-0.04 0.03h-0.12q-0.02 0.03-0.04 0.05c-0.06 0.05-0.11 0.09-0.11 0.18-0.07 0-0.15 0-0.19 0.08q0.35-0.05 0.71-0.07c0.61-0.04 1.22-0.09 1.79-0.39q0.94-0.47 1.66-1.24 0.03 0.03 0.04 0.07-0.18 0.54-0.64 0.87-0.16 0.09-0.29 0.2-0.14 0.11-0.28 0.18l-0.34 0.23c-0.53 0.18-1.1 0.27-1.67 0.35-0.93 0.13-1.85 0.27-2.6 0.86q-0.01-0.05-0.08-0.04-0.05 0.04-0.1 0.08-0.08 0.04-0.12 0.11 0 0.01 0.01 0.02 0.03 0.05 0.09 0.04 0.03-0.02 0.06-0.04 0.29-0.18 0.61-0.29l-0.03 0.02q-0.02 0.01-0.04 0.03-0.06 0.04-0.13 0.08-0.15 0.09-0.3 0.16h0.01q-0.15 0.09-0.26 0.23 0.02 0.01 0.03 0.03 0.01 0.02 0 0.04l-0.01 0.02-0.01 0.02-0.02 0.03-0.02 0.04-0.02 0.02q-0.02 0.03-0.03 0.06l-0.01 0.01v0.01l-0.01 0.01q-0.02 0.03-0.03 0.05l-0.01 0.03-0.01 0.01-0.01 0.02-0.02 0.03v0.01l-0.01 0.01-0.01 0.01q0.02 0.01 0.04 0.02 0.03 0 0.06 0c0.1 0 0.16-0.08 0.22-0.15q0.04-0.05 0.08-0.09 0.08-0.07 0.18-0.13l0.01 0.01q0.01 0.01 0.02 0.02-0.01 0.02-0.02 0.04-0.01 0.02-0.02 0.04-0.02 0.03-0.04 0.06c-0.02 0.03 0.02 0.05 0.04 0.04q-0.34 0.21-0.63 0.48 0.03 0 0.05 0.02 0.02 0.02 0 0.05-0.08 0.11-0.16 0.23-0.06 0.08-0.11 0.17-0.05 0.08-0.1 0.16-0.01 0.02-0.02 0.04 0.06 0.01 0.11-0.01 0.22-0.2 0.42-0.41 0.1-0.09 0.19-0.18 0.03 0 0.06-0.01 0.09-0.08 0.18-0.16 0.21-0.2 0.45-0.34 0.15-0.08 0.26-0.22 0.02-0.03 0.05-0.07 0.01 0 0.03-0.01 0.33-0.19 0.7-0.29h0.01 0.01l0.02-0.01q0.68-0.16 1.38-0.24 0.11 0 0.22 0c0.23 0.01 0.46 0.02 0.72-0.04q0.2-0.05 0.4-0.15 0.14-0.06 0.28-0.11v0.07c0.27-0.1 0.51-0.27 0.74-0.44 0.26-0.18 0.51-0.36 0.81-0.46q0.02 0 0.05 0.01 0.06 0.05 0.14 0.02h0.01c0.34-0.3 0.71-0.64 1.2-0.56q-0.01 0.06 0.04 0.07 0.01 0 0.02 0l-0.4 0.3c-0.04 0.04 0 0.08 0.04 0.08q0.13-0.06 0.24-0.15 0.11-0.09 0.25-0.15-0.03 0.03-0.04 0.07-0.01 0.05-0.04 0.08-0.21 0.15-0.41 0.33-0.68 0.6-1.26 1.28-0.32 0.36-0.64 0.68c-0.32 0.32-1.2 0.74-1.73 1zm-5.03-4.39h0.3c-0.02 0.05-0.08 0.05-0.11 0.06q-0.06 0-0.04 0.02c0.12 0.11 0.34 0.07 0.49 0q0.18-0.1 0.38-0.08c0.04 0 0.04-0.07 0.04-0.11q0.15 0.05 0.3 0.04c0.91-0.19 1.78-0.38 2.61-0.8-0.84-0.64-1.87-0.93-2.88-1.21q-0.26-0.07-0.52-0.15 0.05 0.01 0.11 0.03c0.08 0.02 0.15 0.05 0.23-0.03-0.1-0.08-0.22-0.09-0.33-0.11q-0.15-0.01-0.28-0.08 0.02 0.01 0.03 0.01c0.04 0.01 0.1 0.02 0.12-0.04-0.2-0.1-0.4-0.14-0.6-0.17q-0.15-0.02-0.3-0.06c0.18-0.03 0.31-0.19 0.3-0.38 0-0.04-0.08-0.04-0.11-0.04-0.46 0.23-0.76 0.65-0.95 1.14 0.17 0.09 0.35 0.08 0.53 0.07q0.16-0.01 0.3 0c-0.08 0.09-0.21 0.11-0.33 0.13q-0.06 0.01-0.12 0.02c-0.12 0.03-0.23 0.12-0.19 0.19q0.03 0.05 0.09 0.06-0.14 0.03-0.24 0.13c0.11 0.08 0.22 0.07 0.32 0.05q0.07-0.01 0.13-0.01 0.01 0.07 0.07 0.08 0.03 0.02 0.05 0.03-0.26 0.1-0.38 0.34-0.08 0.16-0.22 0.26-0.09 0.07-0.16 0.16v0.11q-0.19 0.17-0.39 0.32c-0.26 0.2-0.51 0.39-0.71 0.67q0.05 0.01 0.04 0.07-0.05 0.07-0.13 0.12-0.09 0.06-0.13 0.15-0.01 0.06 0.04 0.07 0.35-0.13 0.64-0.34 0.27-0.18 0.57-0.3 0.23-0.07 0.43-0.18 0.18-0.1 0.36-0.16 0.14-0.03 0.3-0.08 0.16-0.04 0.3-0.07-0.01 0.06 0.04 0.07zm-3.66-2.15q-0.52 1.02-1.21 1.93 0 0.04 0.03 0.07c0.91-1.02 1.74-1.89 2.91-2.61q0.04-0.01 0.01 0.02c-0.03 0.03-0.06 0.08 0.03 0.06 0.39-0.09 0.57-0.42 0.74-0.75q0.06-0.12 0.13-0.23c0.18-0.29 0.43-0.47 0.68-0.66q0.29-0.19 0.53-0.44 0.01 0.07-0.04 0.11 0.05 0.05 0.12 0.04 0.1-0.06 0.2-0.09c0.1-0.02 0.19-0.05 0.25-0.13q-0.49-0.19-0.98-0.04c-0.8 0.38-1.48 0.98-2.12 1.66-0.39 0.41-0.79 0.79-1.28 1.06zm1.9-0.41q0.03-0.03 0.06-0.08 0.01-0.07-0.04-0.08c-0.15 0.05-0.27 0.18-0.3 0.34q0.01 0.05 0.08 0.04 0.1-0.05 0.15-0.15 0.02-0.05 0.05-0.07zm1.14 5.27q0.1-0.07 0.21-0.14 0.36-0.23 0.75-0.45-0.16-0.09-0.34-0.08-0.13 0.02-0.27 0-0.17-0.04-0.33 0-0.29 0.13-0.6 0.19c-0.32 0.08-0.63 0.16-0.85 0.37q0 0 0 0h-0.01q-0.04 0.05-0.08 0.1h-0.01q0 0.01-0.01 0.01-0.04 0.04-0.1 0.08l-0.01 0.01q-0.1 0.09-0.2 0.2-0.04 0.04-0.09 0.08c-0.04 0.04 0.03 0.09 0.07 0.06q0.04-0.03 0.06-0.06 0.04-0.04 0.08-0.07 0.01 0 0.01 0 0.01 0 0.01-0.01-0.08 0.1-0.15 0.21 0.01 0.01 0.01 0.02-0.01 0.03-0.01 0.05l-0.01 0.01q0 0 0 0.01 0 0.02-0.01 0.04 0 0.01-0.01 0.02v0.01 0.01q-0.02 0.04-0.04 0.08 0 0.01 0 0.01 0 0-0.01 0.01v0.01q-0.02 0.04-0.04 0.08-0.03 0.04-0.06 0.08 0 0-0.01 0.01v0.01 0.01q-0.06 0.07-0.12 0.15l-0.01 0.02q-0.01 0.01-0.02 0.01l-0.06 0.09q-0.02 0.02-0.04 0.04l-0.01 0.01q-0.05 0.07-0.11 0.14v0.01 0.01h0.01q0.01 0.03 0.03 0.06v0.01l0.01 0.01q0 0.01 0.01 0.01v0.01q0.02 0 0.04-0.02l0.01-0.01 0.01-0.02 0.01-0.01q0-0.01 0.01-0.01l0.01-0.02 0.01-0.01q0.1-0.13 0.22-0.24 0.07-0.06 0.14-0.11 0.01-0.01 0.02-0.01 0.02 0 0.03 0 0.03-0.01 0.06-0.03 0.03-0.01 0.06-0.03c0 0.05 0.06 0.05 0.09 0.03q0.03-0.02 0.05-0.05 0.04-0.05 0.08-0.09 0 0 0 0l0.01-0.01q0.02-0.02 0.06-0.06 0.02-0.02 0.05-0.05 0.17-0.17 0.38-0.29 0.04-0.01 0.06 0.02 0.01 0 0.01 0.01 0.06-0.03 0.13-0.06 0.19-0.09 0.37-0.19 0.2-0.12 0.38-0.25l0.05-0.04zm0.63 0.49q0.04-0.05-0.05-0.06 0.06-0.05 0.1-0.11c0.03-0.08-0.17-0.06-0.2-0.04q-0.05 0.04-0.09 0.09-0.07 0.08-0.15 0.15-0.06 0.05-0.12 0.11-0.08 0.08-0.16 0.15c-0.07 0.06 0.14 0.09 0.19 0.05q0.07-0.07 0.14-0.14 0.03 0 0.06 0 0.16-0.07 0.28-0.2zm0.87-2.51q0.04 0 0.07 0 0.16-0.06 0.32-0.06c0.17-0.02 0.33-0.03 0.47-0.17q-0.05-0.04-0.11-0.05-0.09-0.01-0.15-0.1c-0.07-0.03-0.16 0.02-0.23 0.06l-0.02 0.01-0.02 0.01q-0.07 0.03-0.16 0.05c-0.13 0.04-0.27 0.08-0.29 0.21-0.03 0.06 0.05 0.05 0.12 0.04zm1.01 2.48q0.01 0.01 0.01 0.01 0.01 0 0.01 0-0.07 0.09-0.15 0.15h-0.01q0 0.01-0.01 0.01 0.08-0.09 0.15-0.17zm7.15-2.25l0.08-0.06q-0.01 0.06-0.08 0.06z"/>
	<path class="s2" d="m58 2h-21.51q0.1 0.04 0.2 0.09c0.17 0.1 0.4 0.22 0.54 0.29q0.44 0.21 0.72 0.61c0.08 0.11 0.19 0.34 0.12 0.49-0.08 0.19-0.12 0.49-0.31 0.57-0.22 0.11-0.52 0.11-0.79 0.07q-0.23-0.01-0.45-0.07c0.56 0.22 1.09 0.49 1.47 1.02 0.04 0.07 0.19 0.11 0.34 0.11 0.04 0 0.04 0.08 0.04 0.11-0.08 0.08-0.15 0.12-0.11 0.23h0.11c0.19-0.08 0.15-0.45 0.41-0.34 0.2 0.12 0.26 0.37 0.16 0.57q-0.22 0.2-0.46 0.38-0.06 0.13 0 0.26 0.14 0.21 0.19 0.45c0.11 0.27 0.15 0.57 0.27 0.84 0.15 0.56 0.3 1.13 0.26 1.7 0 0.3-0.15 0.56-0.04 0.87 0.08 0.3 0.27 0.52 0.42 0.79 0.15 0.23 0.3 0.38 0.41 0.6 0.23 0.38 0.65 0.76 0.46 1.21-0.12 0.27-0.53 0.23-0.8 0.38-0.22 0.19-0.03 0.49 0.08 0.68 0.19 0.34-0.23 0.57-0.49 0.68 0.07 0.11 0.22 0.08 0.26 0.15 0.04 0.19 0.23 0.3 0.12 0.49-0.16 0.23-0.61 0.34-0.38 0.68 0.15 0.27 0.05 0.56-0.04 0.84-0.11 0.34-0.42 0.49-0.68 0.56q-0.35 0.11-0.72 0.04-0.1-0.06-0.22-0.08c-0.65-0.07-1.29-0.26-1.93-0.26q-0.28 0.04-0.53 0.15-0.25 0.18-0.46 0.41-0.05 0.05-0.09 0.09-0.02 0.03-0.04 0.06-0.02 0.02-0.04 0.04-0.16 0.21-0.29 0.43-0.01 0.02-0.02 0.03-0.02 0.03-0.03 0.06-0.18 0.33-0.29 0.69c-0.25 0.87-0.14 1.61 0.04 1.79 0.05 0.05 1.25 0.42 2.08 0.79q0.46 0.19 0.89 0.45h21.13z"/>
	<path class="s3" d="m37.77 9.3c0.15 0.03 0.37 0.03 0.37 0.11-0.07 0.3-0.53 0.38-0.75 0.68h-0.12c-0.11 0.08-0.07 0.26-0.18 0.26q-0.18-0.03-0.35 0.04c0.16 0.15 0.35 0.27 0.57 0.23q0.1 0.04 0.12 0.15 0.04 0 0.07-0.04 0.07-0.01 0.08 0.04v0.15c-0.12 0.15-0.31 0.08-0.46 0.11q0.44 0.12 0.87 0c0.23-0.07 0-0.45 0.15-0.64-0.07 0 0-0.11-0.07-0.11 0.07-0.08 0.15-0.19 0.22-0.23q0.15 0 0.23-0.11c0-0.08-0.15-0.11-0.11-0.19 0.22-0.15 0.41-0.38 0.34-0.61-0.04-0.11-0.34-0.11-0.53-0.18-0.19-0.08-0.42 0-0.64 0.03-0.19 0-0.38 0.12-0.57 0.15q-0.39 0.14-0.72 0.38 0.41-0.14 0.83-0.22c0.23 0 0.42-0.06 0.65 0z"/>
	<g id="Clip-Path" clip-path="url(#cp1)">
		<g>
		</g>
	</g>
	<path class="s4" d="m3.16 48h2.99v-5.94h1.86c3.24 0 5.21-1.66 5.21-4.37 0-2.73-1.97-4.39-5.21-4.39h-4.85zm4.98-12.22c1.26 0 2.02 0.75 2.02 1.87 0 1.19-0.76 1.93-2.02 1.93h-1.99v-3.8zm7.85 12.22h2.99v-5.94h1.53l3.93 5.94h3.5l-4.6-6.51c1.52-0.69 2.38-2.02 2.38-3.8 0-2.73-2-4.39-5.23-4.39h-4.5zm4.67-12.22c1.26 0 1.99 0.75 1.99 1.87 0 1.19-0.73 1.93-1.99 1.93h-1.68v-3.8zm15.09-3.74l2.73-2.84h-3.07l-2.37 2.84zm-5.61 15.96h8.57v-2.48h-5.59v-3.78h4.75v-2.48h-4.75v-3.48h5.59v-2.48h-8.57zm12.35 0h2.98v-6.26h4.74v-2.48h-4.74v-3.48h5.58v-2.48h-8.56zm11.5 0h8.57v-2.48h-5.59v-3.78h4.75v-2.48h-4.75v-3.48h5.59v-2.48h-8.57zm11.14-11.99h4.53v11.99h2.98v-11.99h4.54v-2.71h-12.05zm-61.97 32.99h5.77c4.67 0 7.82-3.38 7.82-7.35 0-3.97-3.15-7.35-7.82-7.35h-5.77zm5.82-11.99c2.73 0 4.7 2.02 4.7 4.64 0 2.61-1.97 4.64-4.7 4.64h-2.84v-9.28zm10.96 11.99h8.56v-2.48h-5.58v-3.78h4.74v-2.48h-4.74v-3.48h5.58v-2.48h-8.56zm18.1 0h8.57v-2.71h-5.59v-11.99h-2.98zm10.29 0h3.17l1.41-3.82h5.88l1.41 3.82h3.17l-5.57-14.7h-3.9zm5.5-6.36l2.01-5.53 2.02 5.53zm17.87 6.36h2.99v-5.94h1.53l3.93 5.94h3.5l-4.6-6.51c1.52-0.69 2.38-2.02 2.38-3.8 0-2.73-2-4.39-5.23-4.39h-4.5zm4.67-12.22c1.26 0 1.99 0.75 1.99 1.87 0 1.19-0.73 1.93-1.99 1.93h-1.68v-3.8zm15.09-3.74l2.73-2.83h-3.07l-2.37 2.83zm-5.61 15.96h8.57v-2.48h-5.59v-3.78h4.75v-2.48h-4.75v-3.48h5.59v-2.48h-8.57zm18.78-2.37c-2.88 0-4.96-2.17-4.96-4.98 0-2.81 1.98-4.98 4.75-4.98 1.68 0 3 0.82 3.84 2.02l2.35-1.83c-1.34-1.78-3.52-2.98-6.19-2.98-4.64 0-7.81 3.57-7.81 7.77 0 4.2 3.25 7.77 8.02 7.77 2.75 0 5.04-1.18 6.4-3v-6.18h-6.72v2.54h3.74v2.57c-0.84 0.79-2.04 1.28-3.42 1.28zm10.03 2.37h2.98v-14.7h-2.98zm13.95-15.12c-4.64 0-7.81 3.57-7.81 7.77 0 4.2 3.17 7.77 7.81 7.77 4.62 0 7.79-3.57 7.79-7.77 0-4.2-3.17-7.77-7.79-7.77zm0 12.75c-2.77 0-4.74-2.17-4.74-4.98 0-2.81 1.97-4.98 4.74-4.98 2.75 0 4.73 2.17 4.73 4.98 0 2.81-1.98 4.98-4.73 4.98zm10.96 2.37h2.98v-10.63l6.58 10.63h3.82v-14.7h-2.98v10.63l-6.58-10.63h-3.82zm-136.41 21h5.78c4.66 0 7.81-3.38 7.81-7.35 0-3.97-3.15-7.35-7.81-7.35h-5.78zm5.82-11.99c2.73 0 4.7 2.02 4.7 4.64 0 2.6-1.97 4.64-4.7 4.64h-2.84v-9.28zm11.65 3.34l2.44-6.05h-3.03l-1.89 6.05zm5.01-7.31l1.55-1.62 1.56 1.62h2.33l-2.35-2.83h-3.05l-2.39 2.83zm0.06 15.96h2.98v-14.7h-2.98zm7.4 0h8.57v-2.71h-5.59v-11.99h-2.98zm11.5 0h8.57v-2.48h-5.58v-3.78h4.74v-2.48h-4.74v-3.48h5.58v-2.48h-8.57zm10.6-6.66v2.59h5.67v-2.59zm8.35 6.66h5.77c4.66 0 7.81-3.38 7.81-7.35 0-3.97-3.15-7.35-7.81-7.35h-5.77zm5.81-11.99c2.73 0 4.71 2.02 4.71 4.64 0 2.6-1.98 4.64-4.71 4.64h-2.83v-9.28zm10.96 11.99h8.56v-2.48h-5.58v-3.78h4.74v-2.48h-4.74v-3.48h5.58v-2.48h-8.56zm10.59-6.66v2.59h5.67v-2.59zm8.35 6.66h2.98v-6.26h4.75v-2.48h-4.75v-3.48h5.59v-2.48h-8.57zm11.5 0h2.98v-5.94h1.54l3.92 5.94h3.51l-4.6-6.51c1.51-0.69 2.37-2.02 2.37-3.8 0-2.73-1.99-4.39-5.22-4.39h-4.5zm4.66-12.22c1.26 0 2 0.75 2 1.87 0 1.19-0.74 1.93-2 1.93h-1.68v-3.8zm8.28 12.22h3.17l1.4-3.82h5.88l1.41 3.82h3.17l-5.56-14.7h-3.91zm5.5-6.36l2.02-5.53 2.02 5.53zm12.11 6.36h2.98v-10.63l6.57 10.63h3.83v-14.7h-2.99v10.63l-6.57-10.63h-3.82zm24.35-2.37c-2.77 0-4.75-2.17-4.75-4.98 0-2.81 1.98-4.98 4.75-4.98 1.68 0 3 0.82 3.84 2.02l2.35-1.83c-1.34-1.78-3.52-2.98-6.19-2.98-4.64 0-7.81 3.57-7.81 7.77 0 4.2 3.17 7.77 7.81 7.77 2.67 0 4.85-1.18 6.19-3l-2.35-1.81c-0.84 1.2-2.16 2.02-3.84 2.02zm9.09 2.37h8.57v-2.48h-5.59v-3.78h4.75v-2.48h-4.75v-3.48h5.59v-2.48h-8.57z"/>
	<path fill-rule="evenodd" class="s5" d="m146.96 99.7l-1.86 1.7h-0.48l1.1-1.94h1.24zm-3.9 8.86c-0.76 0-1.24-0.56-1.24-1.58 0-2.16 1.76-4.86 3.3-4.86 0.9 0 1.66 0.66 1.02 2.18l-3.26 1.08q-0.1 0.43-0.1 0.9 0 1.09 0.84 1.08c0.54 0 1.1-0.48 1.6-1.08h0.4c-0.76 1.4-1.68 2.26-2.56 2.28zm0.04-3.9l2.02-0.54c0.2-0.78-0.18-1.12-0.62-1.12-0.48 0-1.08 0.7-1.4 1.66zm-4.96-2.12l1.34-0.18 1.12-1.7h0.62l-0.6 1.7h1.58l-0.2 0.68h-1.62l-1.58 4.42c0.72-0.12 1.68-0.8 2.12-1.42h0.3c-0.56 1.48-2.02 2.52-3.24 2.52-0.42 0-0.64-0.4-0.48-0.8l1.72-4.72h-1.08zm-1.5-0.4c0.22 0 0.52 0.24 0.38 0.68l-1.94 4.7c0.5-0.08 1.02-0.56 1.32-1h0.32c-0.46 1.18-1.5 2.04-2.4 2.04-0.22 0-0.54-0.24-0.38-0.68l1.8-4.7c-0.5 0.08-1.02 0.56-1.32 1h-0.3c0.46-1.2 1.58-2.04 2.52-2.04zm-0.18-1.94c0-0.4 0.32-0.74 0.74-0.74 0.4 0 0.74 0.34 0.74 0.74 0 0.42-0.34 0.74-0.74 0.74-0.4 0-0.74-0.34-0.74-0.74zm-8 4.64c0.44-0.96 0.28-1.4 0-1.4q-0.37 0.01-0.8 0.74h-0.3c0.46-1.02 1.06-2.04 1.72-2.04 0.56 0 0.76 0.56 0.76 1.18v0.88q0.14-0.16 0.27-0.31c0.84-0.99 1.49-1.75 2.23-1.75 0.58 0 0.88 0.36 0.88 0.9q0 0.49-0.32 1.14l-1.66 3.34c0.5-0.08 1.02-0.56 1.32-1h0.3c-0.46 1.2-1.58 2.04-2.52 2.04-0.42 0-0.66-0.44-0.48-0.8l1.92-3.7c0.22-0.42 0.26-0.7-0.08-0.7-0.46 0-1.54 0.76-2.12 1.46l-1.26 3.32c-0.14 0.34-0.28 0.42-0.6 0.42-0.52 0-0.78-0.34-0.54-0.88zm-2.6-1.28c-0.4 0.42-0.72 0.8-1.08 1.24l-1.26 3.32c-0.14 0.34-0.28 0.42-0.6 0.42-0.52 0-0.78-0.34-0.54-0.88l1.28-2.84c0.44-0.96 0.28-1.4 0-1.4-0.24 0-0.54 0.28-0.86 0.74h-0.3c0.46-1.02 1.06-2.04 1.72-2.04 0.56 0 0.76 0.56 0.76 1.18v0.88l0.05-0.1c0.7-1.48 0.93-1.96 1.65-1.96 0.58 0 0.7 0.68 0.48 1.44zm-7.08 5c-0.76 0-1.24-0.56-1.24-1.58 0-2.16 1.76-4.86 3.3-4.86 0.9 0 1.66 0.66 1.02 2.18l-3.26 1.08q-0.1 0.43-0.1 0.9 0 1.09 0.84 1.08c0.54 0 1.1-0.48 1.6-1.08h0.4c-0.76 1.4-1.68 2.26-2.56 2.28zm2.06-4.44c0.2-0.78-0.18-1.12-0.62-1.12-0.48 0-1.08 0.7-1.4 1.66zm-5.9-1.08h-1.08v-0.5l1.34-0.18 1.12-1.7h0.62l-0.6 1.7h1.58l-0.2 0.68h-1.62l-1.58 4.42c0.72-0.12 1.68-0.8 2.12-1.42h0.3c-0.56 1.48-2.02 2.52-3.24 2.52-0.42 0-0.64-0.4-0.48-0.8zm-2.34-1.22l0.5 0.04-1.74 4c-0.42 0.96-0.24 1.4 0 1.4 0.24 0 0.54-0.28 0.86-0.74h0.3c-0.46 1.02-1.06 2.04-1.72 2.04-0.56 0-0.9-0.6-0.8-1.68l0.04-0.38-0.11 0.15c-0.72 1-1.36 1.91-2.03 1.91-0.58 0-0.88-0.36-0.88-0.9 0-2.32 2.54-5.28 4.92-5.28h0.1zm-4.1 5.52c0.4 0 1.24-0.8 1.78-1.46l0.94-2.52q-0.25-0.09-0.56-0.08c-0.9 0-2.52 1.96-2.52 3.42 0 0.44 0.14 0.64 0.36 0.64zm-0.48-3.76h-1.32c-0.4 0.42-0.72 0.8-1.08 1.24l-1.26 3.32c-0.14 0.34-0.28 0.42-0.6 0.42-0.52 0-0.78-0.34-0.54-0.88l1.28-2.86c0.44-0.96 0.28-1.4 0-1.4-0.22 0-0.52 0.28-0.84 0.74h-0.3c0.46-1.02 1.06-2.04 1.72-2.04 0.56 0 0.76 0.56 0.76 1.18v0.88l0.05-0.1c0.7-1.48 0.93-1.96 1.65-1.96 0.58 0 0.7 0.68 0.48 1.44zm-8.24 4.38l-0.12 0.36h-4.66l0.12-0.38c1.44-0.26 1.68-0.38 2.28-2l1.3-3.48c0.58-1.62 0.46-1.74-0.8-2l0.12-0.36h6.06l-0.36 1.94h-0.44c0-1.16-0.12-1.46-1.22-1.46h-0.28c-1.08 0-1.22 0.16-1.52 1l-0.86 2.34h1.26c0.84 0 1.16-0.52 1.54-1.2h0.44l-1.04 2.84h-0.44c0.1-0.86 0.1-1.2-0.68-1.2h-1.26l-0.58 1.6c-0.63 1.66-0.45 1.7 1.05 1.98q0.04 0.01 0.09 0.02z"/>
	<path fill-rule="evenodd" class="s5" d="m57.74 97.4l-1.86 1.34v0.02h-0.48l1.1-1.6h1.24zm14.44 8.38h0.3c-0.46 1.18-1.46 2.04-2.4 2.04-0.42 0-0.66-0.44-0.48-0.8l2.28-6.08 0.05-0.13c0.28-0.78 0.37-1.02 0.03-1.29l-0.4-0.3v-0.24l2.06-0.24 0.1 0.12-2.98 7.92c0.48-0.08 1.12-0.56 1.44-1zm11.74-5.1l1.1-1.94h1.24v0.24l-1.86 1.7zm0.6 4.86h0.4c-0.74 1.42-1.66 2.28-2.54 2.28-0.76 0-1.24-0.56-1.24-1.58 0-2.16 1.76-4.86 3.3-4.86 0.88 0 1.66 0.66 1.02 2.18l-3.28 1.08c-0.06 0.28-0.1 0.6-0.1 0.9q0 1.09 0.84 1.08c0.54 0 1.1-0.48 1.6-1.08zm-0.1-2.16c0.2-0.76-0.18-1.1-0.62-1.1-0.46 0-1.06 0.7-1.4 1.64zm-5.88-1.06h-1.08v-0.5l1.34-0.18 1.12-1.7h0.62l-0.6 1.7h1.58l-0.2 0.68h-1.62l-1.58 4.42c0.72-0.12 1.68-0.8 2.12-1.42h0.3c-0.56 1.48-2.02 2.52-3.24 2.52-0.42 0-0.64-0.4-0.48-0.8zm-4.14 4.46c0.5-0.08 1.02-0.56 1.32-1h0.3c-0.46 1.18-1.5 2.04-2.4 2.04-0.22 0-0.54-0.24-0.38-0.68l1.8-4.7c-0.5 0.08-1.02 0.56-1.32 1h-0.3c0.46-1.18 1.58-2.04 2.52-2.04 0.24 0 0.52 0.24 0.4 0.68zm2.86-7.3c0 0.4-0.34 0.74-0.74 0.74-0.4 0-0.74-0.34-0.74-0.74 0-0.4 0.32-0.74 0.74-0.74 0.4 0 0.74 0.34 0.74 0.74zm-9.4 5.66c-0.42 0.96-0.24 1.4 0 1.4 0.24 0 0.54-0.28 0.86-0.74h0.3c-0.46 1.02-1.06 2.04-1.72 2.04-0.56 0-0.9-0.6-0.8-1.68l0.04-0.38-0.11 0.15c-0.72 1-1.36 1.91-2.03 1.91-0.58 0-0.88-0.36-0.88-0.9 0-2.32 2.54-5.28 4.92-5.28h0.1l0.56-0.56 0.5 0.04zm-0.7-2.58c-0.9 0-2.52 1.96-2.52 3.42q0.01 0.65 0.38 0.64c0.38 0 1.22-0.8 1.76-1.46l0.94-2.52q-0.27-0.09-0.56-0.08zm-5.88 4.48c1.1 0.34 1.78 0.6 1.78 1.36 0 0.98-1.8 2.14-3.98 2.12-1.26 0-2.34-0.34-2.34-1.16 0-0.78 0.72-1.42 2.48-1.94q-0.35-0.23-0.34-0.64c0-0.48 0.44-0.86 1.2-1.22-0.74-0.1-1.22-0.66-1.22-1.48 0-1.26 1.04-2.7 2.68-2.7q0.51 0 0.88 0.24h1.8l-0.2 0.68h-1.06q0.09 0.27 0.1 0.6c0 1.22-0.98 2.62-2.54 2.7-0.4 0.22-0.6 0.52-0.6 0.76 0 0.28 0.33 0.38 1.05 0.59q0.14 0.04 0.31 0.09zm0.7-4.48c0-0.36-0.14-0.7-0.54-0.7-0.9 0-1.46 1.44-1.46 2.6 0 0.36 0.14 0.7 0.54 0.7 0.88 0 1.44-1.42 1.46-2.6zm-2.46 5.06c-0.86 0.34-1.46 0.74-1.46 1.36 0 0.58 0.54 0.82 1.66 0.82 1.5 0 2.32-0.44 2.32-1.02 0-0.26-0.34-0.38-1.24-0.68q-0.87-0.27-1.28-0.48zm-4.58-3.98h-1.74l-0.6 1.6q-0.06 0.16-0.11 0.3c-0.54 1.49-0.57 1.58 1.23 1.58 1.64 0 2.48-0.76 3.32-1.58h0.5l-1.3 2.06h-7.24l0.1-0.38c1.46-0.26 1.7-0.38 2.3-2l1.3-3.5c0.58-1.62 0.46-1.74-0.8-2l0.12-0.36h6.52l-0.36 1.94h-0.44c0-1.16-0.12-1.46-1.22-1.46h-0.76c-1.08 0-1.22 0.16-1.52 1l-0.84 2.34h1.72c0.84 0 1.16-0.52 1.54-1.2h0.44l-1.04 2.84h-0.44c0.12-0.86 0.1-1.2-0.68-1.2z"/>
	<path fill-rule="evenodd" class="s5" d="m13.18 100.74c0-0.4 0.32-0.74 0.74-0.74 0.4 0 0.74 0.34 0.74 0.74 0 0.4-0.34 0.74-0.74 0.74-0.42 0-0.74-0.32-0.74-0.74zm1.02 7.24c0-0.12 0.18-0.6 0.34-1l1.82-4.76 0.03-0.08c0.3-0.8 0.4-1.07 0.05-1.34l-0.4-0.3v-0.24l2.06-0.24 0.1 0.14-1.68 4.5c0.78-1.08 1.56-1.98 2.4-1.98 0.68 0 0.92 0.36 0.92 1.32 0 2.22-2.62 5.1-4.18 5.08-0.7 0-1.46-0.54-1.46-1.1zm22.5-6.02l1.1-1.94h1.24v0.24l-1.86 1.7zm0.6 4.86h0.4c-0.76 1.42-1.68 2.28-2.56 2.26-0.76 0-1.24-0.54-1.24-1.56 0-2.16 1.76-4.86 3.3-4.86 0.88 0 1.66 0.66 1.02 2.18l-3.26 1.08q-0.1 0.43-0.1 0.9 0 1.09 0.84 1.08c0.54 0 1.1-0.48 1.6-1.08zm-0.1-2.16c0.2-0.76-0.18-1.1-0.62-1.1-0.48 0-1.08 0.7-1.4 1.64zm-5.9-1.06h-1.08v-0.5l1.34-0.18 1.12-1.7h0.62l-0.6 1.7h1.58l-0.2 0.68h-1.62l-1.58 4.42c0.72-0.12 1.68-0.8 2.12-1.42h0.3c-0.56 1.48-2.02 2.52-3.24 2.52-0.42 0-0.64-0.4-0.48-0.8zm-2.96 0.52c-0.4 0.42-0.72 0.8-1.08 1.24l-1.26 3.32c-0.14 0.34-0.28 0.42-0.6 0.42-0.52 0-0.78-0.34-0.54-0.88l1.28-2.84c0.44-0.96 0.28-1.4 0-1.4-0.22 0-0.52 0.28-0.84 0.74h-0.3c0.46-1.02 1.06-2.04 1.72-2.04 0.56 0 0.76 0.56 0.76 1.18v0.88l0.05-0.1c0.7-1.48 0.93-1.96 1.65-1.96 0.58 0 0.7 0.68 0.48 1.44zm-7.08 4.96c-0.76 0-1.24-0.54-1.24-1.56 0-2.16 1.76-4.86 3.3-4.86 0.9 0 1.66 0.66 1.02 2.18l-3.26 1.08q-0.1 0.43-0.1 0.9 0 1.1 0.84 1.08c0.54 0 1.1-0.48 1.6-1.08h0.4c-0.76 1.42-1.68 2.28-2.56 2.26zm2.06-4.42c0.2-0.76-0.18-1.1-0.62-1.1-0.48 0-1.06 0.7-1.4 1.64zm-7.9 2.92c0 0.26 0.46 0.56 0.78 0.56 1.3 0 2.52-2.34 2.5-3.64 0-0.44-0.22-0.62-0.52-0.62-0.48 0-1.36 0.72-1.92 1.4l-0.52 1.4c-0.18 0.46-0.32 0.82-0.32 0.9zm-2.1-4.9c0.24 0 0.52 0.24 0.4 0.68l-1.92 4.7c0.5-0.08 1.02-0.56 1.32-1h0.3c-0.46 1.18-1.5 2.04-2.4 2.04-0.24 0-0.56-0.24-0.4-0.68l1.8-4.7c-0.5 0.08-1.02 0.56-1.32 1h-0.3c0.46-1.18 1.58-2.04 2.52-2.04zm-8.3-2.08h4.3l-0.12 0.38c-1.46 0.26-1.7 0.38-2.3 2l-1.28 3.52c-0.62 1.68-0.46 1.88 0.64 1.88 1.36 0 2.25-0.99 3.03-1.85q0.08-0.1 0.17-0.19h0.5l-1.42 2.52h-6.54l0.12-0.36c1.44-0.26 1.68-0.38 2.28-2l1.3-3.54c0.58-1.62 0.46-1.74-0.8-2z"/>
	<g id="Clip-Path" clip-path="url(#cp2)">
		<g>
		</g>
	</g>
</svg>