<svg width="201" height="45" viewBox="0 0 201 45" fill="none" xmlns="http://www.w3.org/2000/svg">
        <path d="M43.1104 12.4615L41.7101 10.0879L33.008 15.033C33.6081 15.8242 34.0082 16.6154 34.4083 17.4066L43.1104 12.4615Z" fill="#F54E59"></path>
        <path d="M41.7101 34.9121L43.1104 32.5385L34.4083 27.5934C34.0082 28.4835 33.6081 29.2747 33.008 29.967L41.7101 34.9121Z" fill="#F54E59"></path>
        <path d="M24.1058 9.98901V0H21.3052V9.98901C22.2054 9.89011 23.1056 9.89011 24.1058 9.98901Z" fill="#F54E59"></path>
        <path d="M44.8108 27.7912L45.311 25.022L35.4086 23.3407C35.3085 24.2308 35.2085 25.2198 34.9084 26.1099L44.8108 27.7912Z" fill="#F54E59"></path>
        <path d="M45.311 19.978L44.8108 17.2088L34.9084 18.8901C35.2085 19.7802 35.3085 20.6703 35.4086 21.6593L45.311 19.978Z" fill="#F54E59"></path>
        <path d="M29.7072 33.033L36.2088 40.6483L38.4093 38.8681L31.9077 31.2527C31.2075 31.9451 30.5074 32.5385 29.7072 33.033Z" fill="#F54E59"></path>
        <path d="M31.9077 13.7472L38.4093 6.13186L36.2088 4.35165L29.7072 11.967C30.5074 12.5604 31.2075 13.1538 31.9077 13.7472Z" fill="#F54E59"></path>
        <path d="M29.107 44.1099L31.7077 43.1209L28.3068 33.7253C27.5066 34.1209 26.6064 34.4176 25.7062 34.7143L29.107 44.1099Z" fill="#F54E59"></path>
        <path d="M31.8077 1.87912L29.2071 0.890106L25.8062 10.2857C26.7065 10.4835 27.6067 10.7802 28.4069 11.2747L31.8077 1.87912Z" fill="#F54E59"></path>
        <path d="M21.2051 35.011V45H24.0058V35.011C23.1056 35.2088 22.2054 35.2088 21.2051 35.011Z" fill="#F54E59"></path>
        <path d="M0 25.022L0.500121 27.7912L10.4025 26.1099C10.1024 25.2198 10.0024 24.3297 9.9024 23.3407L0 25.022Z" fill="#F54E59"></path>
        <path d="M2.20052 32.5385L3.60086 34.9121L12.303 29.967C11.7028 29.1758 11.3027 28.3846 10.9026 27.5934L2.20052 32.5385Z" fill="#F54E59"></path>
        <path d="M0.500121 17.2088L0 19.978L9.9024 21.6593C10.0024 20.7692 10.1024 19.7802 10.4025 18.8901L0.500121 17.2088Z" fill="#F54E59"></path>
        <path d="M16.2039 0.890106L13.6033 1.87912L17.0041 11.2747C17.8043 10.8791 18.7045 10.5824 19.6047 10.2857L16.2039 0.890106Z" fill="#F54E59"></path>
        <path d="M3.60086 10.0879L2.20052 12.4615L10.9026 17.4066C11.3027 16.5165 11.7028 15.7253 12.303 15.033L3.60086 10.0879Z" fill="#F54E59"></path>
        <path d="M13.6033 43.2198L16.2039 44.2088L19.6047 34.8132C18.7045 34.6154 17.8043 34.3187 17.0041 33.8242L13.6033 43.2198Z" fill="#F54E59"></path>
        <path d="M13.4032 31.2527L6.90167 38.8681L9.1022 40.6483L15.6038 33.033C14.8036 32.5385 14.1034 31.8462 13.4032 31.2527Z" fill="#F54E59"></path>
        <path d="M15.6038 11.967L9.1022 4.35165L7.00169 6.13186L13.5033 13.7472C14.1034 13.1538 14.8036 12.4615 15.6038 11.967Z" fill="#F54E59"></path>
        <path d="M61.8149 26.9011H58.1141V35.2088H53.913V13.9451H61.5149C65.9159 13.9451 69.1167 15.4286 69.1167 20.3736C69.0167 25.1209 66.116 26.9011 61.8149 26.9011ZM61.4148 17.1099H58.1141V23.7363H61.6149C63.4153 23.7363 64.9157 22.9451 64.9157 20.3736C64.8157 17.4066 63.1153 17.1099 61.4148 17.1099Z" fill="#F54E59"></path>
        <path d="M91.022 35.7033C85.5207 35.7033 83.5202 31.9451 83.5202 27.5934C83.5202 23.4396 85.6207 19.6813 91.022 19.6813C96.5233 19.6813 98.5238 23.2418 98.5238 27.5934C98.5238 31.9451 96.5233 35.7033 91.022 35.7033ZM91.022 22.5495C88.6214 22.5495 87.3211 23.9341 87.3211 27.5934C87.3211 30.956 88.4214 32.8352 91.022 32.8352C93.3226 32.8352 94.6229 31.2527 94.6229 27.5934C94.7229 23.9341 93.6226 22.5495 91.022 22.5495Z" fill="#F54E59"></path>
        <path d="M111.127 35.2088L107.826 30.1648L104.325 35.2088H100.324L105.826 27.5934L100.724 20.1758H104.925L107.926 24.9231L111.027 20.1758H114.928L109.727 27.3956L115.228 35.2088H111.127Z" fill="#F54E59"></path>
        <path d="M117.929 13.9451H121.929V17.2088H117.929V13.9451ZM118.029 20.1758H121.829V35.2088H118.029V20.1758Z" fill="#F54E59"></path>
        <path d="M130.732 35.7033C128.731 35.6044 126.831 35.3077 124.93 34.6154L126.231 31.5495C127.931 32.1429 129.031 32.8352 130.832 32.8352C133.132 32.8352 133.432 32.044 133.432 31.1538C133.432 30.1648 132.032 29.7692 130.432 29.3736C128.031 28.6813 125.13 27.7912 125.13 24.2308C125.13 20.5714 128.431 19.7802 131.632 19.7802C133.432 19.8791 135.133 20.1758 136.833 20.7692L135.533 23.8352C134.332 23.1429 133.032 22.7473 131.632 22.6484C129.931 22.6484 129.031 23.044 129.031 24.1319C129.031 25.1209 130.332 25.5165 131.832 26.011C134.232 26.7033 137.233 27.6923 137.233 31.1538C137.233 34.6154 133.932 35.7033 130.732 35.7033Z" fill="#224B61"></path>
        <path d="M143.735 29.0769C144.035 31.4506 145.335 32.8352 147.436 32.8352C149.136 32.7363 150.736 32.3407 152.237 31.5495L153.437 34.4176C151.437 35.2088 149.336 35.6044 147.136 35.6044C142.234 35.6044 139.734 31.9451 139.734 27.7912C139.734 24.3297 141.334 19.6813 146.936 19.6813C152.237 19.6813 154.137 22.7473 154.137 29.0769H143.735ZM146.936 22.5495C145.735 22.5495 143.835 23.2418 143.735 26.4066H150.536C150.336 23.5385 148.936 22.5495 146.936 22.5495Z" fill="#224B61"></path>
        <path d="M177.843 35.2088H174.142L168.241 20.1758H172.242L176.043 30.8571L179.743 20.1758H183.644L177.843 35.2088Z" fill="#224B61"></path>
        <path d="M189.546 29.0769C189.846 31.4506 191.146 32.8352 193.247 32.8352C194.947 32.7363 196.548 32.3407 198.048 31.5495L199.248 34.4176C197.248 35.2088 195.147 35.6044 192.947 35.6044C188.045 35.6044 185.545 31.9451 185.545 27.7912C185.545 24.3297 187.145 19.6813 192.747 19.6813C198.048 19.6813 199.948 22.7473 199.948 29.0769H189.546ZM192.847 22.5495C191.646 22.5495 189.746 23.2418 189.646 26.4066H196.448C196.247 23.5385 194.747 22.5495 192.847 22.5495Z" fill="#224B61"></path>
        <path d="M81.4197 20.4725C81.4197 20.2747 81.4197 19.978 81.3197 19.7802C81.1196 19.6813 80.9196 19.6813 80.7195 19.6813C80.4195 19.6813 80.2194 19.6813 80.0194 19.6813C79.1191 19.6813 78.319 19.8791 77.6188 20.3736C77.0186 20.8681 76.4185 21.3626 76.0184 22.0549C76.0184 21.956 76.0184 21.7582 75.9184 21.5604C75.9184 21.3626 75.8183 21.1648 75.8183 20.967C75.7183 20.6703 75.7183 20.4725 75.6183 20.1758H72.4175C72.4175 20.1758 72.6176 22.5494 72.6176 23.4396V35.2088H76.4185V27.6923C76.4185 26.8022 76.5185 26.011 76.8186 25.2198C77.0186 24.7253 77.3187 24.2308 77.7188 23.9341C78.0189 23.6374 78.519 23.4396 78.9191 23.3407C79.3192 23.2418 79.7193 23.2418 80.0194 23.2418H80.5195C80.8196 23.2418 81.0196 23.2418 81.3197 23.3407C81.4197 23.044 81.4197 22.7472 81.4197 22.4505C81.4197 22.0549 81.4197 21.6593 81.4197 21.3626C81.4197 21.0659 81.4197 20.7692 81.4197 20.4725Z" fill="#F54E59"></path>
        <path d="M166.34 20.4725C166.34 20.2747 166.34 19.978 166.24 19.7802C166.04 19.6813 165.84 19.6813 165.64 19.6813C165.34 19.6813 165.14 19.6813 164.94 19.6813C164.04 19.6813 163.239 19.8791 162.539 20.3736C161.939 20.8681 161.339 21.3626 160.939 22.0549C160.939 21.956 160.939 21.7582 160.839 21.5604C160.839 21.3626 160.739 21.1648 160.739 20.967C160.639 20.6703 160.639 20.4725 160.539 20.1758H157.338C157.338 20.1758 157.538 22.5494 157.538 23.4396V35.2088H161.339V27.6923C161.339 26.8022 161.439 26.011 161.739 25.2198C161.939 24.7253 162.239 24.2308 162.639 23.9341C162.939 23.6374 163.44 23.4396 163.84 23.3407C164.24 23.2418 164.64 23.2418 164.94 23.2418H165.44C165.74 23.2418 165.94 23.2418 166.24 23.3407C166.34 23.044 166.34 22.7472 166.34 22.4505C166.34 22.0549 166.34 21.6593 166.34 21.3626C166.44 21.0659 166.44 20.7692 166.34 20.4725Z" fill="#224B61"></path>
    </svg>